<svg width="32" height="27.000000000000004" xmlns="http://www.w3.org/2000/svg">
 <g>
  <title>Layer 1</title>
  <path d="m14.79482,8.78919l0,0.2205l-0.02167,0l0,-0.2205l-0.03972,0l0,-0.0882l0.10111,0l0,0.0882l-0.03972,0z" fill="#00C874" id="svg_1" stroke="null"/>
  <path d="m11.39732,15.93306c0.02448,0 0.04732,0.04537 0.06364,0.12855l-0.01305,0.06049c-0.01305,-0.06805 -0.031,-0.10586 -0.05058,-0.10586c-0.01958,0 -0.03753,0.03781 -0.05058,0.10586l-0.01305,-0.06049c0.01632,-0.08318 0.03916,-0.12855 0.06364,-0.12855l-0.00002,0z" fill="#00C874" id="svg_2" stroke="null"/>
  <path stroke="null" id="svg_3" d="m0.13597,26.88606l-0.01405,0.005l0,-0.00999l0.01405,0.00499zm-0.0102,-0.02462l-0.0064,0.01347l-0.00706,-0.00707l0.01346,-0.0064zm-0.02462,-0.0102l0.005,0.01405l-0.00999,0l0.005,-0.01405zm-0.02462,0.0102l0.01347,0.0064l-0.00707,0.00707l-0.0064,-0.01347zm-0.0102,0.02462l0.01405,-0.00499l0,0.00999l-0.01405,-0.005zm0.0102,0.02462l0.0064,-0.01347l0.00707,0.00707l-0.01347,0.0064l0,0zm0.02462,0.0102l-0.005,-0.01406l0.00999,0l-0.005,0.01406zm0.02462,-0.0102l-0.01347,-0.0064l0.00706,-0.00707l0.0064,0.01346zm-0.04203,-0.02462l0,0c0,-0.00961 0.0078,-0.01741 0.01741,-0.01741c0.00961,0 0.01741,0.0078 0.01741,0.01741c0,0.00962 -0.0078,0.01741 -0.01741,0.01741c-0.00962,0 -0.01741,-0.0078 -0.01741,-0.01741l0,0z" opacity="undefined" stroke-opacity="null" stroke-dasharray="null" stroke-width="null" fill="#ffffff"/>
  <path id="svg_6" d="m32.0328,13.58222l-6.44925,1.93435l0,-3.86664l6.44925,1.93229zm-4.6827,-9.52857l-2.93814,5.21388l-3.24234,-2.73569l6.18048,-2.47819zm-11.30054,-3.94595l2.29309,5.43842l-4.58741,0l2.29432,-5.43842zm-11.30176,3.94595l6.18292,2.47819l-3.24356,2.73569l-2.93936,-5.21388zm-4.68148,9.52857l6.45047,-1.93229l0,3.86664l-6.45047,-1.93435zm4.68148,9.52857l2.93936,-5.21182l3.24356,2.73466l-6.18292,2.47716l0,0zm11.30176,3.94904l-2.29432,-5.43945l4.58741,0l-2.29309,5.43945zm11.30054,-3.94904l-6.1817,-2.47613l3.24234,-2.73466l2.93936,5.21079zm-19.29155,-9.52857l0,0c0,-3.72038 3.5783,-6.73726 7.99223,-6.73726c4.41271,0 7.99223,3.01688 7.99223,6.73726c0,3.72141 -3.57952,6.73829 -7.99223,6.73829c-4.41515,0 -7.99223,-3.01688 -7.99223,-6.73829l0,0z" opacity="undefined" stroke-opacity="null" stroke-dasharray="null" stroke-width="null" stroke="null" fill="#ffffff"/>
 </g>

</svg>