<svg width="32" height="27.000000000000004" xmlns="http://www.w3.org/2000/svg">

 <g>
  <title>Layer 1</title>
  <path stroke="null" id="svg_1" fill="#00C874" d="m14.79482,8.78919l0,0.2205l-0.02167,0l0,-0.2205l-0.03972,0l0,-0.0882l0.10111,0l0,0.0882l-0.03972,0z"/>
  <path stroke="null" id="svg_2" fill="#00C874" d="m11.39732,15.93306c0.02448,0 0.04732,0.04537 0.06364,0.12855l-0.01305,0.06049c-0.01305,-0.06805 -0.031,-0.10586 -0.05058,-0.10586c-0.01958,0 -0.03753,0.03781 -0.05058,0.10586l-0.01305,-0.06049c0.01632,-0.08318 0.03916,-0.12855 0.06364,-0.12855z"/>
  <path id="svg_4" d="m31.94448,13.42151l-6.4277,1.92518l0,-3.84831l6.4277,1.92313zm-4.66705,-9.4834l-2.92832,5.18917l-3.2315,-2.72272l6.15983,-2.46644zm-11.26278,-3.92724l2.28543,5.41264l-4.57208,0l2.28665,-5.41264zm-11.264,3.92724l6.16226,2.46644l-3.23272,2.72272l-2.92954,-5.18917zm-4.66583,9.4834l6.42892,-1.92313l0,3.84831l-6.42892,-1.92518zm4.66583,9.4834l2.92954,-5.18712l3.23272,2.7217l-6.16226,2.46542l0,0zm11.264,3.93032l-2.28665,-5.41367l4.57208,0l-2.28543,5.41367zm11.26278,-3.93032l-6.16104,-2.46439l3.2315,-2.7217l2.92954,5.18609zm-19.22708,-9.4834l0,0c0,-3.70274 3.56634,-6.70532 7.96552,-6.70532c4.39796,0 7.96552,3.00258 7.96552,6.70532c0,3.70377 -3.56756,6.70635 -7.96552,6.70635c-4.4004,0 -7.96552,-3.00258 -7.96552,-6.70635l0,0z" opacity="undefined" fill-opacity="null" stroke-opacity="null" stroke-dasharray="null" stroke-width="null" stroke="null" fill="#00C874"/>
 </g>
</svg>