<svg width="19" height="14" viewBox="0 0 19 14" fill="none" xmlns="http://www.w3.org/2000/svg">
<path fill-rule="evenodd" clip-rule="evenodd" d="M17.3853 2.49805H14.4931C12.9884 0.810547 12.5149 0.248047 11.9384 0.248047H7.78994C7.21338 0.248047 6.74932 0.810547 5.23525 2.49805H4.61182V1.74805H3.01807V2.49805H2.38525C1.56025 2.49805 0.814941 3.1168 0.814941 3.93711V12.1871C0.814941 13.0074 1.56025 13.748 2.38525 13.748H17.3853C18.2103 13.748 18.8149 13.0074 18.8149 12.1871V3.93711C18.8149 3.1168 18.2103 2.49805 17.3853 2.49805ZM9.81494 11.8965C7.60713 11.8965 5.80713 10.0965 5.80713 7.88867C5.80713 5.68086 7.60713 3.88086 9.81494 3.88086C12.0228 3.88086 13.8228 5.68086 13.8228 7.88867C13.8228 10.0965 12.0228 11.8965 9.81494 11.8965ZM15.1118 4.79492H14.3149V3.99805H15.1118V4.79492Z" fill="#9B9B9B"/>
<path fill-rule="evenodd" clip-rule="evenodd" d="M9.81494 4.63086C8.01494 4.63086 6.55713 6.08867 6.55713 7.88867C6.55713 9.68867 8.01494 11.1465 9.81494 11.1465C11.6149 11.1465 13.0728 9.68867 13.0728 7.88867C13.0728 6.08867 11.6149 4.63086 9.81494 4.63086ZM9.81494 9.38867C8.98525 9.38867 8.31494 8.71836 8.31494 7.88867C8.31494 7.05898 8.98525 6.38867 9.81494 6.38867C10.6446 6.38867 11.3149 7.05898 11.3149 7.88867C11.3149 8.71836 10.6446 9.38867 9.81494 9.38867Z" fill="#9B9B9B"/>
</svg>
