<svg width="66" height="72" viewBox="0 0 66 72" fill="none" xmlns="http://www.w3.org/2000/svg">
<rect x="3.00555" y="9.51465" width="59" height="59" rx="5" stroke="#ECECEC" stroke-width="6"/>
<line x1="0.0055542" y1="22.0737" x2="63.0483" y2="22.0737" stroke="#ECECEC" stroke-width="6"/>
<line x1="13.2726" y1="3.90039" x2="13.2726" y2="13.6815" stroke="#ECECEC" stroke-width="6" stroke-linecap="round"/>
<line x1="51.6385" y1="3.90039" x2="51.6385" y2="13.6815" stroke="#ECECEC" stroke-width="6" stroke-linecap="round"/>
<path d="M45.8215 36.3958C46.4527 35.4893 46.2295 34.2428 45.3231 33.6116C44.4166 32.9804 43.1701 33.2035 42.5389 34.11L45.8215 36.3958ZM17.027 54.9404C16.3803 55.8359 16.5819 57.0861 17.4774 57.7328C18.3728 58.3795 19.623 58.1778 20.2697 57.2824L17.027 54.9404ZM33.4184 50.7076L32.0771 52.1912L33.7618 53.7143L35.0597 51.8505L33.4184 50.7076ZM26.8439 44.7637L28.1852 43.2801C27.7635 42.8988 27.1994 42.715 26.634 42.7747C26.0687 42.8344 25.5554 43.1318 25.2225 43.5927L26.8439 44.7637ZM42.5389 34.11L31.7771 49.5647L35.0597 51.8505L45.8215 36.3958L42.5389 34.11ZM34.7597 49.2241L28.1852 43.2801L25.5026 46.2472L32.0771 52.1912L34.7597 49.2241ZM25.2225 43.5927L17.027 54.9404L20.2697 57.2824L28.4653 45.9346L25.2225 43.5927Z" fill="#00C874"/>
<line x1="44.0841" y1="35.1441" x2="37.215" y2="36.6269" stroke="#00C874" stroke-width="4" stroke-linecap="round"/>
<line x1="44.5477" y1="35.227" x2="46.0314" y2="42.0958" stroke="#00C874" stroke-width="4" stroke-linecap="round"/>
</svg>
