<svg width="16" height="16" viewBox="0 0 16 16" fill="none" xmlns="http://www.w3.org/2000/svg">
<path d="M0.865967 8.25626C0.718048 4.42388 4.12931 0.882286 8.02776 0.836338C10.0147 0.669573 11.9478 1.42885 13.4514 2.66722C12.8346 3.3346 12.207 3.99427 11.5367 4.61185C10.2129 3.82044 8.61911 3.21732 7.07201 3.75296C4.57666 4.45215 3.06548 7.35142 3.98891 9.75361C4.75364 12.2625 7.8547 13.6393 10.2851 12.5854C11.5435 12.142 12.3732 10.9994 12.7373 9.7716C11.295 9.74333 9.85242 9.761 8.41013 9.7218C8.40654 8.87737 8.40295 8.03616 8.40654 7.19173C10.8118 7.18819 13.2206 7.18112 15.6294 7.20233C15.7773 9.27131 15.4671 11.4855 14.1003 13.1461C12.2286 15.5165 8.77062 16.2121 5.95756 15.2822C2.97209 14.3173 0.800987 11.3576 0.865967 8.25626Z" fill="white"/>
</svg>
