<?xml version="1.0" encoding="UTF-8"?>
<svg width="34px" height="39px" viewBox="0 0 34 39" version="1.1" xmlns="http://www.w3.org/2000/svg" xmlns:xlink="http://www.w3.org/1999/xlink">
    <!-- Generator: sketchtool 52.4 (67378) - http://www.bohemiancoding.com/sketch -->
    <title>0BD0E37F-904F-48E8-B6CA-A533335AF42D</title>
    <desc>Created with sketchtool.</desc>
    <g id="UI" stroke="none" stroke-width="1" fill="none" fill-rule="evenodd" opacity="0.149999991">
        <g id="8.-Profile" transform="translate(-976.000000, -298.000000)" fill="#000000" fill-rule="nonzero" stroke="#000000" stroke-width="0.3">
            <g id="Group-10" transform="translate(290.000000, 260.000000)">
                <g id="Group" transform="translate(648.000000, 16.000000)">
                    <g id="Icons/ic_avatar" transform="translate(34.000000, 20.000000)">
                        <g id="Combined-Shape-2" transform="translate(4.581818, 2.290909)">
                            <path d="M16.5042913,20.4545451 C16.5258187,20.4545451 16.5258187,20.4545451 16.539496,20.4545941 C18.8462333,20.4156034 20.7002033,19.620226 22.0717658,18.0908826 C23.4092581,16.5974641 24.1741227,14.5171166 24.4806623,12.0965608 C24.5921709,11.2160451 24.6352946,10.3430143 24.625864,9.50879022 C24.6196966,8.96322949 24.5931827,8.52258045 24.5603591,8.18819476 C24.3905326,4.60183546 22.942212,2.33998127 20.7550587,1.10054477 C19.5294844,0.403502311 18.0995803,0.0311954168 16.5124922,0 L16.3730768,0 C14.9830654,0 13.4847865,0.304273277 12.1288259,1.06900401 C9.91075615,2.31398902 8.44562842,4.5792315 8.27471402,8.2057781 C8.24318091,8.52258045 8.21666701,8.96322949 8.21049965,9.50879022 C8.20106907,10.3430143 8.2441927,11.2160451 8.35570136,12.0965608 C8.66224093,14.5171166 9.42710557,16.5974641 10.765089,18.0914323 C12.127272,19.6190464 13.9795345,20.4149274 16.2857904,20.4545451 L16.5042913,20.4545451 Z M9.79115557,8.28085717 C10.0229871,3.39832271 12.7897824,1.51954789 16.3648761,1.51954789 L16.4632869,1.51954789 L16.4708388,1.51963099 C20.1564771,1.60075725 22.8118651,3.54787944 23.0371446,8.29167807 C23.0344029,8.27405552 23.0278928,8.25798175 23.0097204,8.22198171 L23.0427328,8.3266942 C23.1177246,8.84665837 23.1523329,10.2366986 23.0126256,11.5853388 C22.7796119,13.8346971 22.1324093,15.754213 20.9336897,17.0909154 C19.8323905,18.3202904 18.3616456,18.9260443 16.455086,18.9431208 L16.3935793,18.9431208 C16.3843532,18.9431208 16.3843532,18.9431208 16.369987,18.9431069 C14.4702556,18.9260004 12.9926959,18.3174397 11.9030726,17.0913593 C10.7077507,15.7617107 10.0597637,13.8424904 9.82276807,11.5889109 C9.74028017,10.8045377 9.71453909,10.0330287 9.73077973,9.30784471 C9.74009957,8.89169098 9.76641635,8.48099577 9.78277489,8.34661431 C9.78414309,8.32339078 9.78713494,8.30239944 9.79115557,8.28085717 Z M32.8337846,30.6587989 L32.833718,30.6520727 L32.833718,30.6282943 C32.833718,30.611649 32.8331066,30.5988809 32.8302974,30.5533509 C32.8268972,30.4988598 32.8255575,30.469149 32.8257228,30.4407367 C32.7859093,29.1646248 32.7020258,28.4007573 32.4165026,27.5053239 C31.925116,25.9642796 30.9651241,24.8720575 29.3652149,24.3421277 C29.3578938,24.3398818 29.3578938,24.3398818 29.338339,24.3344233 C29.3150512,24.3279925 29.3150512,24.3279925 29.3067964,24.3249651 C27.6666086,23.9187471 26.032413,23.2655387 24.4779306,22.4661394 C23.5354838,21.9814821 22.6631755,21.4546174 22.4223895,21.279034 C22.0783198,21.0434589 21.6015881,21.1251718 21.3590132,21.4594065 C21.1220266,21.7859413 21.2036335,22.2350987 21.5450246,22.4688399 C21.9770199,22.7650199 22.757134,23.2382452 23.7613085,23.7545549 C25.3967601,24.5954442 27.129334,25.2859672 28.913891,25.7328567 C30.6977501,26.3500582 31.2288256,27.7791704 31.3144564,30.4935499 C31.3144564,30.5819042 31.3154701,30.6143958 31.3199756,30.6494188 L31.3225946,30.6878166 C31.3325194,31.5553879 31.2668176,32.6142414 31.1442625,33.2094176 L31.1126044,33.3631618 L30.9748274,33.4391584 C27.6720909,35.260918 22.6848044,36.7315054 16.4222299,36.7315054 C10.1866715,36.7315054 5.19482389,35.2586004 1.86225138,33.4316609 L1.7238033,33.3557627 L1.6920367,33.2014914 C1.56561107,32.5875182 1.4951057,31.4918311 1.51368235,30.6837772 C1.51368235,30.6479119 1.51511105,30.618077 1.51842217,30.5665118 C1.52098135,30.5254981 1.52184285,30.5063919 1.52201248,30.4748887 C1.60747357,27.7712442 2.13854912,26.3421321 3.95147231,25.7162932 C5.26269533,25.3889513 6.57264139,24.9157189 7.85495622,24.3341796 C8.73744189,23.9339659 9.5565644,23.505631 10.2985557,23.0734458 C10.5608739,22.9206542 10.795456,22.7778475 11.0056694,22.6449162 C11.1253626,22.5692265 11.3186801,22.4433684 11.2914545,22.4607905 C11.6326657,22.2271726 11.7142726,21.7780151 11.477286,21.4514803 C11.2347111,21.1172456 10.7579795,21.0355327 10.4220692,21.2653445 C10.1662748,21.4516804 9.30545179,21.9735147 8.36469477,22.4581074 C6.81255606,23.2576284 5.17665662,23.9108969 3.52798032,24.3174123 C3.51120258,24.3214863 3.500224,24.3247673 3.47393507,24.3332648 C1.8761845,24.8660472 0.916681652,25.9559904 0.423768551,27.4908878 C0.135334758,28.3890507 0.05064277,29.1550811 0.0107416846,30.4222147 C0.0107416846,30.53994 0.00914402714,30.5911485 0.002581175,30.6203681 C0.002581175,30.6322573 0.002581175,30.6322573 0.00251459394,30.6508728 C-0.0054092806,31.0510803 0.00454406398,31.6117942 0.0445586652,32.1714556 C0.103570025,32.9968137 0.218574464,33.6765291 0.394883625,34.1095317 C0.44947389,34.24739 0.547586601,34.3631052 0.687414645,34.4481566 C0.880423697,34.5731338 1.30466746,34.8122375 1.86404171,35.087131 C2.75765508,35.5262797 3.80127102,35.9617422 4.98666498,36.3652101 C8.32856917,37.502681 12.1608853,38.1818182 16.4303904,38.1818182 C20.7761913,38.1818182 24.6648691,37.4774819 28.0432394,36.3040548 C29.1810225,35.9088627 30.1823185,35.4861504 31.0424617,35.0612716 C31.5753226,34.7980581 31.9139452,34.6076301 32.1762423,34.4463145 C32.310263,34.36142 32.413849,34.2409702 32.4649365,34.1119853 C32.6305292,33.6841593 32.7391552,33.0051562 32.7947025,32.1798067 C32.8323949,31.6197542 32.8416311,31.0550965 32.8337846,30.6587989 Z" id="Combined-Shape"></path>
                        </g>
                    </g>
                </g>
            </g>
        </g>
    </g>
</svg>