<svg width="16" height="16" viewBox="0 0 16 16" fill="none" xmlns="http://www.w3.org/2000/svg">
<path fill-rule="evenodd" clip-rule="evenodd" d="M12.5126 9.25244C11.6046 9.25244 10.7612 9.6567 10.1895 10.3395L6.31996 8.41111C6.37403 8.18337 6.40166 7.94919 6.40166 7.71182C6.40166 7.47444 6.37403 7.24026 6.31996 7.01253L10.1895 5.08411C10.7612 5.76693 11.6046 6.17119 12.5126 6.17119C14.1833 6.17119 15.5423 4.81218 15.5423 3.1415C15.5423 1.47083 14.1833 0.111816 12.5126 0.111816C10.8419 0.111816 9.48291 1.47083 9.48291 3.1415C9.48291 3.38574 9.51213 3.62661 9.56927 3.86049L5.70806 5.78464C5.13646 5.09277 4.28708 4.68213 3.37197 4.68213C1.7013 4.68213 0.342285 6.04114 0.342285 7.71182C0.342285 9.38249 1.7013 10.7415 3.37197 10.7415C4.28708 10.7415 5.13646 10.3309 5.70806 9.63899L9.56927 11.5631C9.51213 11.797 9.48291 12.0379 9.48291 12.2821C9.48291 13.9528 10.8419 15.3118 12.5126 15.3118C14.1833 15.3118 15.5423 13.9528 15.5423 12.2821C15.5423 10.6115 14.1833 9.25244 12.5126 9.25244ZM10.8548 3.1415C10.8548 2.22742 11.5985 1.48369 12.5126 1.48369C13.4267 1.48369 14.1704 2.22742 14.1704 3.1415C14.1704 4.05559 13.4267 4.79932 12.5126 4.79932C11.5985 4.79932 10.8548 4.05559 10.8548 3.1415ZM3.37197 9.36963C4.28606 9.36963 5.02979 8.6259 5.02979 7.71182C5.02979 6.79773 4.28606 6.054 3.37197 6.054C2.45789 6.054 1.71416 6.79773 1.71416 7.71182C1.71416 8.6259 2.45789 9.36963 3.37197 9.36963ZM14.1704 12.2821C14.1704 13.1962 13.4267 13.9399 12.5126 13.9399C11.5985 13.9399 10.8548 13.1962 10.8548 12.2821C10.8548 11.368 11.5985 10.6243 12.5126 10.6243C13.4267 10.6243 14.1704 11.368 14.1704 12.2821Z" fill="#4A4A4A"/>
</svg>
