<svg width="120" height="87" viewBox="0 0 120 87" fill="none" xmlns="http://www.w3.org/2000/svg">
<path fill-rule="evenodd" clip-rule="evenodd" d="M10.9517 0C5.42881 0 0.95166 4.47714 0.95166 9.99999V57.1343V61.4179V87L12.9517 71.4179H88.9517C94.4745 71.4179 98.9517 66.9408 98.9517 61.4179V10C98.9517 4.47715 94.4745 0 88.9517 0H10.9517Z" fill="#ECECEC"/>
<line x1="16.4604" y1="20.873" x2="83.4429" y2="20.873" stroke="white" stroke-width="5" stroke-linecap="round"/>
<line x1="16.4604" y1="36.4551" x2="83.4429" y2="36.4551" stroke="white" stroke-width="5" stroke-linecap="round"/>
<line x1="16.4604" y1="52.0374" x2="83.4429" y2="52.0374" stroke="white" stroke-width="5" stroke-linecap="round"/>
<circle cx="101.934" cy="67" r="18" fill="#00C874"/>
<path fill-rule="evenodd" clip-rule="evenodd" d="M111.354 62.518L108.548 59.7502C108.24 59.4465 107.741 59.4466 107.433 59.7502L100.06 67.0644L96.7332 63.7833C96.4253 63.4796 95.926 63.4796 95.6181 63.7833L92.812 66.5511C92.6642 66.6969 92.5811 66.8948 92.5811 67.101C92.5811 67.3072 92.6642 67.5051 92.812 67.6509L99.5023 74.2498C99.6563 74.4017 99.8581 74.4776 100.06 74.4776C100.261 74.4776 100.463 74.4017 100.617 74.2498L111.354 63.6179C111.502 63.4721 111.585 63.2742 111.585 63.068C111.585 62.8617 111.502 62.6638 111.354 62.518Z" fill="white"/>
</svg>
