<svg width="89" height="96" viewBox="0 0 89 96" fill="none" xmlns="http://www.w3.org/2000/svg">
<path fill-rule="evenodd" clip-rule="evenodd" d="M0.00561523 51.466C0.00561523 50.8501 0.00561523 27.3488 0.00561523 12.4711C0.00561523 5.84368 5.3782 0.478516 12.0056 0.478516L76.8801 0.478516C83.5075 0.478516 88.8801 5.84069 88.8801 12.4681C88.8801 27.1188 88.8801 50.14 88.8801 51.466C88.8801 75.7209 69.5427 95.4482 45.4795 96.0004H44.6945C44.6945 96.0004 44.2193 96.0004 43.9644 96.0004C43.7095 96.0004 43.2028 95.9669 43.2028 95.9669H42.4197C18.8167 94.9067 0.00561523 75.3885 0.00561523 51.466Z" fill="#ECECEC"/>
<path fill-rule="evenodd" clip-rule="evenodd" d="M68.7825 32.7229L61.5479 25.5871C60.7544 24.8042 59.4672 24.8044 58.6734 25.5871L39.6634 44.4441L31.0873 35.9849C30.2935 35.202 29.0063 35.202 28.2125 35.9849L20.978 43.1207C20.5969 43.4966 20.3826 44.0067 20.3826 44.5384C20.3826 45.07 20.5969 45.5801 20.978 45.956L38.2263 62.9688C38.6233 63.3604 39.1436 63.556 39.6636 63.556C40.1836 63.556 40.7041 63.3604 41.1009 62.9688L68.7827 35.5584C69.1638 35.1825 69.3781 34.6724 69.3781 34.1408C69.3779 33.6089 69.1636 33.0988 68.7825 32.7229Z" fill="#00C874"/>
</svg>
