<svg width="19" height="17" viewBox="0 0 19 17" fill="none" xmlns="http://www.w3.org/2000/svg">
<path d="M9.16082 2.93198L9.55757 3.44933L9.95433 2.93198C10.7826 1.85195 12.0646 1.19727 13.462 1.19727C15.9035 1.19727 17.8979 3.20048 17.8979 5.67114C17.8979 6.90299 17.4093 8.04809 16.5396 8.89133L16.5395 8.89125L16.5318 8.89907L9.70375 15.8171L9.70359 15.8172L9.55757 15.965L9.41153 15.8172L9.4114 15.8171L2.45301 8.76836C1.65513 7.92914 1.21729 6.8302 1.21729 5.67114C1.21729 3.20048 3.21164 1.19727 5.65311 1.19727C7.05055 1.19727 8.33253 1.85195 9.16082 2.93198Z" stroke="#ACACAC"/>
</svg>
