<svg width="32" height="27.000000000000004" xmlns="http://www.w3.org/2000/svg">
 <g>
  <title>Layer 1</title>
  <path d="m14.79482,8.78919l0,0.2205l-0.02167,0l0,-0.2205l-0.03972,0l0,-0.0882l0.10111,0l0,0.0882l-0.03972,0z" fill="#00C874" id="svg_1" stroke="null"/>
  <path d="m11.39732,15.93306c0.02448,0 0.04732,0.04537 0.06364,0.12855l-0.01305,0.06049c-0.01305,-0.06805 -0.031,-0.10586 -0.05058,-0.10586c-0.01958,0 -0.03753,0.03781 -0.05058,0.10586l-0.01305,-0.06049c0.01632,-0.08318 0.03916,-0.12855 0.06364,-0.12855l-0.00002,0z" fill="#00C874" id="svg_2" stroke="null"/>
  <path id="svg_3" d="m31.89351,13.4781l-6.42115,1.92935l0,-3.85665l6.42115,1.9273zm-4.6623,-9.50395l-2.92534,5.20041l-3.22821,-2.72862l6.15355,-2.47179zm-11.2513,-3.93575l2.2831,5.42437l-4.56742,0l2.28432,-5.42437zm-11.25252,3.93575l6.15598,2.47179l-3.22943,2.72862l-2.92655,-5.20041zm-4.66108,9.50395l6.42236,-1.9273l0,3.85665l-6.42236,-1.92935zm4.66108,9.50395l2.92655,-5.19836l3.22943,2.7276l-6.15598,2.47076l0,0zm11.25252,3.93883l-2.28432,-5.4254l4.56742,0l-2.2831,5.4254zm11.2513,-3.93883l-6.15476,-2.46973l3.22821,-2.7276l2.92655,5.19733zm-19.20749,-9.50395l0,0c0,-3.71076 3.56271,-6.71985 7.95741,-6.71985c4.39348,0 7.95741,3.00909 7.95741,6.71985c0,3.71179 -3.56393,6.72088 -7.95741,6.72088c-4.39591,0 -7.95741,-3.00909 -7.95741,-6.72088l0,0z" opacity="undefined" stroke-opacity="null" stroke-dasharray="null" stroke-width="null" stroke="null" fill="#645A73"/>
 </g>

</svg>