<svg width="21" height="22" viewBox="0 0 21 22" fill="none" xmlns="http://www.w3.org/2000/svg">
<path fill-rule="evenodd" clip-rule="evenodd" d="M15.4736 9.50834C15.4736 12.9807 12.6587 15.7956 9.18632 15.7956C5.71396 15.7956 2.89906 12.9807 2.89906 9.50834C2.89906 6.03598 5.71396 3.22108 9.18632 3.22108C12.6587 3.22108 15.4736 6.03598 15.4736 9.50834ZM14.5506 16.5459C13.0624 17.682 11.2032 18.3568 9.18632 18.3568C4.29947 18.3568 0.337891 14.3952 0.337891 9.50834C0.337891 4.62149 4.29947 0.659912 9.18632 0.659912C14.0732 0.659912 18.0347 4.62149 18.0347 9.50834C18.0347 11.9167 17.0725 14.1004 15.5116 15.6959L20.25 20.4343L19.3445 21.3398L14.5506 16.5459Z" fill="white"/>
</svg>
