<svg width="14" height="18" viewBox="0 0 14 18" fill="none" xmlns="http://www.w3.org/2000/svg">
<mask id="path-1-inside-1" fill="white">
<path fill-rule="evenodd" clip-rule="evenodd" d="M7.85762 4.77441V5.42826H12.4076V16.5436H0.707617V5.42826H5.25762V4.77441H0.0576172V17.1975H13.0576V4.77441H7.85762Z"/>
</mask>
<path fill-rule="evenodd" clip-rule="evenodd" d="M7.85762 4.77441V5.42826H12.4076V16.5436H0.707617V5.42826H5.25762V4.77441H0.0576172V17.1975H13.0576V4.77441H7.85762Z" fill="#9B9B9B"/>
<path d="M7.85762 4.77441V3.77441H6.85762V4.77441H7.85762ZM7.85762 5.42826H6.85762V6.42826H7.85762V5.42826ZM12.4076 5.42826H13.4076V4.42826H12.4076V5.42826ZM12.4076 16.5436V17.5436H13.4076V16.5436H12.4076ZM0.707617 16.5436H-0.292383V17.5436H0.707617V16.5436ZM0.707617 5.42826V4.42826H-0.292383V5.42826H0.707617ZM5.25762 5.42826V6.42826H6.25762V5.42826H5.25762ZM5.25762 4.77441H6.25762V3.77441H5.25762V4.77441ZM0.0576172 4.77441V3.77441H-0.942383V4.77441H0.0576172ZM0.0576172 17.1975H-0.942383V18.1975H0.0576172V17.1975ZM13.0576 17.1975V18.1975H14.0576V17.1975H13.0576ZM13.0576 4.77441H14.0576V3.77441H13.0576V4.77441ZM6.85762 4.77441V5.42826H8.85762V4.77441H6.85762ZM7.85762 6.42826H12.4076V4.42826H7.85762V6.42826ZM11.4076 5.42826V16.5436H13.4076V5.42826H11.4076ZM12.4076 15.5436H0.707617V17.5436H12.4076V15.5436ZM1.70762 16.5436V5.42826H-0.292383V16.5436H1.70762ZM0.707617 6.42826H5.25762V4.42826H0.707617V6.42826ZM6.25762 5.42826V4.77441H4.25762V5.42826H6.25762ZM5.25762 3.77441H0.0576172V5.77441H5.25762V3.77441ZM-0.942383 4.77441V17.1975H1.05762V4.77441H-0.942383ZM0.0576172 18.1975H13.0576V16.1975H0.0576172V18.1975ZM14.0576 17.1975V4.77441H12.0576V17.1975H14.0576ZM13.0576 3.77441H7.85762V5.77441H13.0576V3.77441Z" fill="#979797" mask="url(#path-1-inside-1)"/>
<mask id="path-3-inside-2" fill="white">
<path fill-rule="evenodd" clip-rule="evenodd" d="M4.0025 3.71578L3.53125 3.24174L6.55781 0.197266L9.58437 3.24174L9.11312 3.71578L6.89094 1.48044V11.4107H6.22469V1.48044L4.0025 3.71578Z"/>
</mask>
<path fill-rule="evenodd" clip-rule="evenodd" d="M4.0025 3.71578L3.53125 3.24174L6.55781 0.197266L9.58437 3.24174L9.11312 3.71578L6.89094 1.48044V11.4107H6.22469V1.48044L4.0025 3.71578Z" fill="#9B9B9B"/>
<path d="M4.0025 3.71578L3.29331 4.42079L4.0025 5.13418L4.71169 4.42079L4.0025 3.71578ZM3.53125 3.24174L2.82206 2.53672L2.12119 3.24174L2.82206 3.94675L3.53125 3.24174ZM6.55781 0.197266L7.267 -0.507752L6.55781 -1.22114L5.84862 -0.507752L6.55781 0.197266ZM9.58437 3.24174L10.2936 3.94675L10.9944 3.24174L10.2936 2.53672L9.58437 3.24174ZM9.11312 3.71578L8.40394 4.42079L9.11312 5.13418L9.82231 4.42079L9.11312 3.71578ZM6.89094 1.48044L7.60013 0.775421L5.89094 -0.943882V1.48044H6.89094ZM6.89094 11.4107V12.4107H7.89094V11.4107H6.89094ZM6.22469 11.4107H5.22469V12.4107H6.22469V11.4107ZM6.22469 1.48044H7.22469V-0.943882L5.5155 0.775421L6.22469 1.48044ZM4.71169 3.01076L4.24044 2.53672L2.82206 3.94675L3.29331 4.42079L4.71169 3.01076ZM4.24044 3.94675L7.267 0.902283L5.84862 -0.507752L2.82206 2.53672L4.24044 3.94675ZM5.84862 0.902283L8.87519 3.94675L10.2936 2.53672L7.267 -0.507752L5.84862 0.902283ZM8.87519 2.53672L8.40394 3.01076L9.82231 4.42079L10.2936 3.94675L8.87519 2.53672ZM9.82231 3.01076L7.60013 0.775421L6.18175 2.18546L8.40394 4.42079L9.82231 3.01076ZM5.89094 1.48044V11.4107H7.89094V1.48044H5.89094ZM6.89094 10.4107H6.22469V12.4107H6.89094V10.4107ZM7.22469 11.4107V1.48044H5.22469V11.4107H7.22469ZM5.5155 0.775421L3.29331 3.01076L4.71169 4.42079L6.93388 2.18546L5.5155 0.775421Z" fill="#979797" mask="url(#path-3-inside-2)"/>
</svg>
