<svg width="96" height="16" viewBox="0 0 96 16" fill="none" xmlns="http://www.w3.org/2000/svg">
<path d="M7.57726 0.995361L9.15919 5.86404H14.2784L10.1369 8.87305L11.7188 13.7417L7.57726 10.7327L3.43572 13.7417L5.01765 8.87305L0.876107 5.86404H5.99534L7.57726 0.995361Z" fill="#4000C8"/>
<path d="M27.8341 0.995361L29.416 5.86404H34.5353L30.3937 8.87305L31.9756 13.7417L27.8341 10.7327L23.6926 13.7417L25.2745 8.87305L21.1329 5.86404H26.2522L27.8341 0.995361Z" fill="#4000C8"/>
<path d="M48.0909 0.995361L49.6729 5.86404H54.7921L50.6506 8.87305L52.2325 13.7417L48.0909 10.7327L43.9494 13.7417L45.5313 8.87305L41.3898 5.86404H46.509L48.0909 0.995361Z" fill="#4000C8"/>
<path d="M68.3478 0.995361L69.9297 5.86404H75.0489L70.9074 8.87305L72.4893 13.7417L68.3478 10.7327L64.2062 13.7417L65.7882 8.87305L61.6466 5.86404H66.7658L68.3478 0.995361Z" fill="#4000C8"/>
<path d="M88.6046 0.995361L90.1865 5.86404H95.3058L91.1642 8.87305L92.7462 13.7417L88.6046 10.7327L84.4631 13.7417L86.045 8.87305L81.9035 5.86404H87.0227L88.6046 0.995361Z" fill="#4000C8"/>
</svg>
